STARTFONT 2.1
COMMENT The PlayStation face buttons' shapes (ticket 0220): our own glyphs,
COMMENT drawn for the game's 8x16 cell. Not part of Terminus Font. Merged
COMMENT into the atlas by `cargo xtask font-atlas` (assets/fonts/README.md).
FONT -trpg-PadShapes-Medium-R-Normal--16-160-72-72-C-80-ISO10646-1
SIZE 16 72 72
FONTBOUNDINGBOX 8 16 0 -4
CHARS 4
STARTCHAR whitesquare
ENCODING 9633
SWIDTH 500 0
DWIDTH 8 0
BBX 8 16 0 -4
BITMAP
00
00
00
00
00
FE
82
82
82
82
82
FE
00
00
00
00
ENDCHAR
STARTCHAR whiteuptriangle
ENCODING 9651
SWIDTH 500 0
DWIDTH 8 0
BBX 8 16 0 -4
BITMAP
00
00
00
00
00
10
10
28
28
44
44
FE
00
00
00
00
ENDCHAR
STARTCHAR largecircle
ENCODING 9711
SWIDTH 500 0
DWIDTH 8 0
BBX 8 16 0 -4
BITMAP
00
00
00
00
00
38
44
82
82
82
44
38
00
00
00
00
ENDCHAR
STARTCHAR multiplicationx
ENCODING 10005
SWIDTH 500 0
DWIDTH 8 0
BBX 8 16 0 -4
BITMAP
00
00
00
00
00
82
44
28
10
28
44
82
00
00
00
00
ENDCHAR
ENDFONT
